Coordinates
version=1
nRows=12
nColumns=46
inDegrees=yes

Units are S.I. units (second, meters, Newtons, ...)
Angles are in degrees.

endheader
time	pelvis_tilt	pelvis_list	pelvis_rotation	pelvis_tx	pelvis_ty	pelvis_tz	bb_angle	bb_tx	bb_ty	bb_tz	hip_flexion_r	hip_adduction_r	hip_rotation_r	knee_angle_r	knee_angle_r_beta	ankle_angle_r	subtalar_angle_r	mtp_angle_r	crank_angle_r	hip_flexion_l	hip_adduction_l	hip_rotation_l	knee_angle_l	knee_angle_l_beta	ankle_angle_l	subtalar_angle_l	mtp_angle_l	crank_angle_l	lumbar_extension	lumbar_bending	lumbar_rotation	arm_flex_r	arm_add_r	arm_rot_r	elbow_flex_r	pro_sup_r	wrist_flex_r	wrist_dev_r	arm_flex_l	arm_add_l	arm_rot_l	elbow_flex_l	pro_sup_l	wrist_flex_l	wrist_dev_l
      5.00500000	    -13.20022258	      3.87950153	     -2.28311808	      0.20700530	      1.07062327	     -0.30272481	      0.00000000	      0.50000000	      0.00000000	      0.25000000	     42.21522521	    -10.20948491	     -3.84178581	     47.51271246	      0.82925327	    -22.25816836	     -2.87826152	      0.00000000	      0.00000000	     88.96904512	     -4.24476852	      3.36642138	    108.23239876	      1.88901172	      3.36569755	    -12.11479435	      0.00000000	      0.00000000	    -69.95501580	    -12.40434010	     -4.95786567	     84.59475468	    -23.93921476	     28.33838997	     60.40450841	     43.36319804	      0.00000000	      0.00000000	     89.20107722	    -15.54090400	     33.53111051	     75.78063857	     43.59523672	      0.00000000	      0.00000000
      5.01000000	    -13.67129929	      3.44477902	     -2.34949079	      0.20627256	      1.07058605	     -0.30150313	      0.00000000	      0.50000000	      0.00000000	      0.25000000	     43.36524939	     -9.50611948	     -3.29557429	     49.63099622	      0.86622430	    -22.43355351	     -4.23934692	      0.00000000	      0.00000000	     88.69915610	     -4.66603855	      3.62486613	    106.33774244	      1.85594372	      4.65356254	    -11.68957581	      0.00000000	      0.00000000	    -69.60767168	    -12.75764825	     -4.34174310	     83.94489145	    -24.44411334	     26.82094546	     61.18225336	     43.55581679	      0.00000000	      0.00000000	     89.25342587	    -14.75913666	     33.50767677	     75.84465549	     43.88073863	      0.00000000	      0.00000000
      5.01500000	    -13.91032947	      3.53950624	     -2.27518300	      0.20581844	      1.07123575	     -0.30109409	      0.00000000	      0.50000000	      0.00000000	      0.25000000	     44.40077143	     -9.50826188	     -2.64104714	     51.88619673	      0.90558497	    -22.30020288	     -4.87584293	      0.00000000	      0.00000000	     87.86832187	     -4.75596660	      3.16786197	    104.16346515	      1.81799543	      5.80106441	    -11.60288799	      0.00000000	      0.00000000	    -69.62435014	    -13.08762556	     -4.44657199	     83.93420773	    -25.04307844	     27.17621332	     61.06434554	     43.59873557	      0.00000000	      0.00000000	     89.27542798	    -14.07537823	     33.15672784	     76.00438555	     43.74830804	      0.00000000	      0.00000000
      5.02000000	    -14.23623078	      3.20385205	     -2.17142482	      0.20541007	      1.07162252	     -0.29999576	      0.00000000	      0.50000000	      0.00000000	      0.25000000	     45.40566358	     -8.97776375	     -2.12355894	     54.07994948	      0.94387318	    -22.14010043	     -5.87251835	      0.00000000	      0.00000000	     87.09363707	     -4.99356850	      3.19775383	    101.87807322	      1.77810781	      6.86518687	    -11.36723243	      0.00000000	      0.00000000	    -69.47864225	    -13.33672224	     -3.66864865	     83.58169598	    -26.87314944	     27.95520342	     62.32045162	     44.05160307	      0.00000000	      0.00000000	     89.29491771	    -12.37753112	     32.37466896	     75.35985821	     42.88087509	      0.00000000	      0.00000000
      5.02500000	    -14.26857929	      3.04487909	     -2.05452992	      0.20519266	      1.07223244	     -0.29965014	      0.00000000	      0.50000000	      0.00000000	      0.25000000	     46.23225419	     -8.77205370	     -1.65407145	     56.45895391	      0.98539464	    -21.84275801	     -6.45832863	      0.00000000	      0.00000000	     85.86368657	     -5.14456318	      2.89924011	     99.49953303	      1.73659446	      7.81076302	    -11.44522990	      0.00000000	      0.00000000	    -69.60687514	    -13.38737454	     -3.59485273	     83.62361323	    -27.07534296	     27.88738499	     62.31592475	     44.05156431	      0.00000000	      0.00000000	     89.30457194	    -12.08183479	     32.37901491	     75.51847578	     42.86056445	      0.00000000	      0.00000000
      5.03000000	    -14.54029650	      2.99354550	     -1.89293984	      0.20483226	      1.07253752	     -0.29861593	      0.00000000	      0.50000000	      0.00000000	      0.25000000	     47.36414673	     -8.47916170	     -0.89316548	     58.85359093	      1.02718894	    -21.46020339	     -7.15016147	      0.00000000	      0.00000000	     84.78458711	     -5.26274513	      2.59156799	     96.86517284	      1.69061620	      8.37511675	    -11.30485837	      0.00000000	      0.00000000	    -69.55732530	    -13.68135480	     -3.20459937	     82.96038131	    -28.30469742	     27.49478358	     63.55297258	     44.33414252	      0.00000000	      0.00000000	     89.33172168	    -10.60910694	     31.64666675	     75.15568198	     42.21778554	      0.00000000	      0.00000000
      5.03500000	    -14.57494215	      2.85212102	     -1.76127326	      0.20468008	      1.07298842	     -0.29807262	      0.00000000	      0.50000000	      0.00000000	      0.25000000	     48.24424041	     -8.20824061	     -0.35263869	     61.21460307	      1.06839637	    -21.09288930	     -7.75044727	      0.00000000	      0.00000000	     83.44439960	     -5.33118662	      2.35126520	     94.24240055	      1.64484018	      8.84919407	    -11.30413998	      0.00000000	      0.00000000	    -69.63727036	    -13.78950758	     -3.15509984	     82.83955687	    -28.56236205	     27.44150941	     63.52720069	     44.33815675	      0.00000000	      0.00000000	     89.34180033	    -10.21228686	     31.67523677	     75.29266098	     42.17101452	      0.00000000	      0.00000000
      5.04000000	    -14.61114819	      2.77820210	     -1.62063109	      0.20456536	      1.07320159	     -0.29743487	      0.00000000	      0.50000000	      0.00000000	      0.25000000	     49.22302914	     -7.94582601	      0.26183958	     63.72604010	      1.11222922	    -20.64749451	     -8.33181665	      0.00000000	      0.00000000	     82.03383472	     -5.41516573	      2.00447723	     91.51435083	      1.59722673	      9.06182898	    -11.27759667	      0.00000000	      0.00000000	    -69.72195154	    -13.90342849	     -3.13856636	     82.68833357	    -28.83323300	     27.36708743	     63.58869319	     44.35761538	      0.00000000	      0.00000000	     89.34717098	     -9.75050836	     31.56662691	     75.35445729	     42.09221938	      0.00000000	      0.00000000
      5.04500000	    -14.47097253	      2.35564284	     -1.47803271	      0.20441326	      1.07323793	     -0.29710286	      0.00000000	      0.50000000	      0.00000000	      0.25000000	     49.99734316	     -7.40353534	      0.70319313	     66.21838011	      1.15572876	    -20.28934501	     -8.67470061	      0.00000000	      0.00000000	     80.60318781	     -5.54233989	      2.07320164	     88.95387381	      1.55253798	      8.96427457	    -11.12411548	      0.00000000	      0.00000000	    -69.82757296	    -13.70374985	     -2.74777840	     82.59499789	    -28.84783149	     27.36432733	     63.61521352	     44.36845321	      0.00000000	      0.00000000	     89.32761344	     -9.53705629	     31.49430975	     75.41352792	     42.06554331	      0.00000000	      0.00000000
      5.05000000	    -14.27475760	      2.54356352	     -1.11715858	      0.20441932	      1.07347090	     -0.29696017	      0.00000000	      0.50000000	      0.00000000	      0.25000000	     50.88389428	     -7.60311749	      1.21323296	     68.91018664	      1.20270965	    -19.52856809	     -9.19041652	      0.00000000	      0.00000000	     78.86773162	     -5.22322644	      1.61313087	     86.13444755	      1.50332971	      8.71221279	    -10.98389520	      0.00000000	      0.00000000	    -70.17767195	    -13.77025161	     -3.13103382	     82.50165959	    -29.24882425	     27.23091125	     63.68387718	     44.38080958	      0.00000000	      0.00000000	     89.34485447	     -8.90033091	     31.33107950	     75.38487242	     41.98088029	      0.00000000	      0.00000000
      5.05500000	    -14.06583206	      2.67178782	     -0.88857615	      0.20428880	      1.07356182	     -0.29676995	      0.00000000	      0.50000000	      0.00000000	      0.25000000	     51.79949208	     -7.60077931	      1.90107020	     71.49037661	      1.24774246	    -19.03663389	     -9.17871880	      0.00000000	      0.00000000	     77.19038924	     -5.07849332	      1.12047300	     83.37107918	      1.45509983	      8.05609664	    -11.03597311	      0.00000000	      0.00000000	    -70.49176968	    -13.86207136	     -3.23236742	     82.13970111	    -29.73603942	     26.99772100	     64.25409626	     44.50775967	      0.00000000	      0.00000000	     89.35042560	     -7.91890270	     30.53340889	     74.90509983	     41.59611702	      0.00000000	      0.00000000
      5.06000000	    -13.99454005	      2.23210888	     -0.75381985	      0.20418454	      1.07263304	     -0.29669830	      0.00000000	      0.50000000	      0.00000000	      0.25000000	     52.87154957	     -7.09024679	      2.12215865	     74.13012297	      1.29381472	    -18.65631794	     -9.60294159	      0.00000000	      0.00000000	     75.97324666	     -5.25663238	      1.24055854	     81.02853981	      1.41421481	      7.42765075	    -10.54310469	      0.00000000	      0.00000000	    -70.44545944	    -13.70850986	     -2.90388617	     82.06683637	    -29.80753776	     26.95254109	     64.28356909	     44.51760089	      0.00000000	      0.00000000	     89.31534785	     -7.68689357	     30.47825535	     74.93907252	     41.55428754	      0.00000000	      0.00000000
